<svg class="icon" viewBox="0 0 1024 1024" xmlns="http://www.w3.org/2000/svg" width="200" height="200"><defs><style/></defs><path d="M209.455 870.4h619.054v69.818H209.455zM1024 418.91c0-60.51-46.545-107.055-107.055-107.055-60.509 0-107.054 46.545-107.054 107.054v13.964l-102.4 60.509-125.673-218.764c23.273-18.618 37.237-46.545 37.237-79.127 0-60.51-46.546-107.055-107.055-107.055s-107.055 46.546-107.055 107.055c0 32.582 13.964 65.164 41.891 83.782L325.818 493.382 204.8 428.218c4.655-9.309 4.655-18.618 4.655-27.927 0-60.51-46.546-107.055-107.055-107.055C46.545 293.236 0 339.782 0 400.291c0 55.854 41.89 102.4 97.745 107.054l93.091 293.237c4.655 13.963 18.619 23.273 32.582 23.273h581.818c13.964 0 27.928-9.31 32.582-23.273l79.127-269.964C977.455 521.31 1024 474.764 1024 418.91zM516.655 153.6c18.618 0 37.236 13.964 37.236 37.236s-13.964 37.237-37.236 37.237c-18.619 0-37.237-13.964-37.237-37.237s18.618-37.236 37.237-37.236zM69.818 400.29c0-18.617 13.964-37.235 37.237-37.235 18.618 0 32.581 13.963 32.581 37.236s-13.963 32.582-32.581 32.582c-18.619 0-37.237-13.964-37.237-32.582zm712.146 349.092H251.345l-83.781-265.31 153.6 83.783c18.618 9.309 37.236 4.654 46.545-13.964l148.946-260.655L665.6 553.891c4.655 9.309 13.964 13.964 23.273 18.618 9.309 4.655 18.618 0 27.927-4.654l130.327-74.473 9.31 9.309-74.473 246.69zM916.945 451.49c-18.618 0-32.581-13.964-32.581-32.582s13.963-37.236 37.236-37.236c18.618 0 37.236 13.963 37.236 37.236s-23.272 32.582-41.89 32.582z"/></svg>