<svg class="icon" viewBox="0 0 1025 1024" xmlns="http://www.w3.org/2000/svg" width="200.195" height="200"><defs><style/></defs><path d="M928.012 0H224.026c-53.021 0-96.008 42.946-96.008 96.008v63.999h-32.01C42.987 160.007 0 202.953 0 256.015v639.988C0 966.698 57.302 1024 127.997 1024h767.985c70.696 0 127.998-57.302 127.998-127.997V96.008C1023.98 42.946 980.972 0 927.97 0zm31.99 895.982c0 35.266-28.734 63.999-64 63.999H128.019c-35.286 0-63.999-28.733-63.999-63.999V255.995c0-17.654 14.336-32.01 32.01-32.01h32.01v639.987c0 17.695 14.294 32.01 32.009 32.01s32.01-14.295 32.01-32.01V95.988c0-17.674 14.335-32.01 32.01-32.01h703.985c17.633 0 32.01 14.336 32.01 32.01v799.994zm-336.05-479.837c-8.807 0-15.995-7.168-15.995-15.994s7.209-15.995 15.995-15.995h255.995c8.867 0 15.994 7.168 15.994 15.995s-7.127 15.994-15.994 15.994H623.952zm0-95.988c-8.807 0-15.995-7.167-15.995-15.994s7.209-15.995 15.995-15.995h255.995c8.867 0 15.994 7.168 15.994 15.995s-7.127 15.994-15.994 15.994H623.952zm0-96.008c-8.807 0-15.995-7.168-15.995-15.994s7.209-15.995 15.995-15.995h255.995c8.867 0 15.994 7.168 15.994 15.995s-7.127 15.994-15.994 15.994H623.952zm-95.947 639.967c8.827 0 15.994 7.209 15.994 15.994 0 8.868-7.208 15.995-15.994 15.995H272.01c-8.827 0-15.995-7.127-15.995-15.995 0-8.806 7.168-15.994 15.995-15.994h255.995zm0-96.008c8.827 0 15.994 7.208 15.994 15.994 0 8.868-7.208 15.995-15.994 15.995H272.01c-8.827 0-15.995-7.127-15.995-15.995 0-8.806 7.168-15.994 15.995-15.994h255.995zm0-95.988c8.827 0 15.994 7.208 15.994 15.994 0 8.868-7.208 15.995-15.994 15.995H272.01c-8.827 0-15.995-7.127-15.995-15.995 0-8.806 7.168-15.994 15.995-15.994h255.995zm352.003 191.996c8.806 0 15.995 7.209 15.995 15.994 0 8.868-7.21 15.995-15.995 15.995H624.013a15.951 15.951 0 0 1-15.994-15.995c0-8.806 7.126-15.994 15.994-15.994h255.995zm0-96.008c8.806 0 15.995 7.208 15.995 15.994 0 8.868-7.21 15.995-15.995 15.995H624.013a15.951 15.951 0 0 1-15.994-15.995c0-8.806 7.126-15.994 15.994-15.994h255.995zm0-95.988c8.806 0 15.995 7.208 15.995 15.994 0 8.868-7.21 15.995-15.995 15.995H624.013a15.951 15.951 0 0 1-15.994-15.995c0-8.806 7.126-15.994 15.994-15.994h255.995zm0-191.996c8.806 0 15.995 7.167 15.995 15.994s-7.21 15.995-15.995 15.995H272.01c-8.827 0-15.995-7.168-15.995-15.995s7.168-15.994 15.995-15.994h607.998zm0 95.987c8.806 0 15.995 7.21 15.995 15.995 0 8.868-7.21 15.994-15.995 15.994H272.01c-8.827 0-15.995-7.126-15.995-15.994 0-8.806 7.168-15.995 15.995-15.995h607.998zm-591.983-160.11h224.006c17.694 0 32.01-14.294 32.01-32.009V160.13c0-17.694-14.295-32.01-32.01-32.01H288.025c-17.694 0-32.01 14.295-32.01 32.01v223.862c0 17.674 14.295 32.01 32.01 32.01zm31.99-224.005H480.02v160.007H320.014V191.996z"/></svg>